<svg width="238" height="238" viewBox="0 0 238 238" fill="none" xmlns="http://www.w3.org/2000/svg">
<path d="M51.705 145.042H116.705L107.705 155.042H51.705V145.042Z" fill="#D64500"/>
<path fill-rule="evenodd" clip-rule="evenodd" d="M147.519 191.557L129.577 144.394L142.404 127.112L167.875 191.557H147.519ZM110.936 95.3932L120.613 120.831L133.359 104.228L117.475 64.0422C115.928 60.128 112.146 57.5565 107.938 57.5565C103.729 57.5565 99.9474 60.128 98.4003 64.0422L67.9659 141.042H87.7807C95.4153 121.011 102.893 101.399 105.198 95.3541C105.641 94.1912 106.743 93.4599 107.987 93.4599H108.132C109.378 93.4599 110.493 94.2293 110.936 95.3932ZM80.921 159.042C74.9289 174.768 69.8661 188.063 68.5447 191.557H48L60.8514 159.042H80.921Z" fill="#222B60"/>
<path fill-rule="evenodd" clip-rule="evenodd" d="M176.026 54.7509C177.997 52.0872 181.754 51.5257 184.418 53.4967C187.082 55.4678 187.643 59.2251 185.672 61.8888L130.013 137.107C129.714 137.512 129.341 137.857 128.913 138.123L117.856 145.013C117.087 145.493 116.128 144.783 116.361 143.907L119.718 131.318C119.847 130.832 120.068 130.374 120.367 129.97L170.67 61.989L169.929 61.4405C169.485 61.112 168.859 61.2056 168.53 61.6496L152.311 83.5688C152.586 84.2023 152.524 84.9612 152.084 85.5562L149.11 89.5755C148.453 90.4634 147.201 90.6506 146.313 89.9936C145.425 89.3366 145.238 88.0841 145.895 87.1962L147.679 84.7847L148.869 83.1769L167.308 58.2574C168.622 56.4815 171.127 56.1072 172.903 57.4212L173.644 57.9697L176.026 54.7509Z" fill="#D64500"/>
</svg>
